<svg id="Group_50350" data-name="Group 50350" xmlns="http://www.w3.org/2000/svg" width="122.162" height="111.707" viewBox="0 0 122.162 111.707">
  <path id="Path_12" data-name="Path 12" d="M723.979,4055.151v5.422h-1.894v-5.422a1.574,1.574,0,0,0-3.148,0v5.422h-1.891v-5.422a1.575,1.575,0,0,0-3.15,0v5.422H712v-5.422a3.442,3.442,0,0,1,3.468-3.4,3.492,3.492,0,0,0,5.04,0,3.441,3.441,0,0,1,3.468,3.4" transform="translate(-660.338 -3948.918)" fill="#fff"/>
  <path id="Path_13" data-name="Path 13" d="M733.852,4055.151v5.422h-1.893v-5.422a1.575,1.575,0,0,0-3.149,0v5.422h-1.89v-5.422a1.576,1.576,0,0,0-3.151,0v5.422h-1.892v-5.422a3.442,3.442,0,0,1,3.468-3.4,3.492,3.492,0,0,0,5.04,0,3.441,3.441,0,0,1,3.468,3.4" transform="translate(-656.321 -3948.918)" fill="#fff"/>
  <path id="Path_14" data-name="Path 14" d="M702.791,4060.5h-2.659v-1.855h2.659a1.208,1.208,0,0,0,1.217-1.2v-.4a2.984,2.984,0,0,1-1.074.2,2.942,2.942,0,0,1-2.966-2.91v-2.329h1.891v2.329a1.075,1.075,0,0,0,2.149,0v-2.361h1.89v5.473a3.083,3.083,0,0,1-3.106,3.052" transform="translate(-665.235 -3948.833)" fill="#fff"/>
  <path id="Path_15" data-name="Path 15" d="M739.529,4059.8v.751h-1.89v-.751a2.688,2.688,0,0,0-.388-1.387l0,0a2.271,2.271,0,0,0-.37-.475.38.38,0,0,0-.061-.06,2.225,2.225,0,0,0-.3-.25c-.028-.021-.056-.04-.086-.059a1.773,1.773,0,0,0-.187-.116,2.372,2.372,0,0,0-.227-.112.555.555,0,0,0-.108-.046,2.65,2.65,0,0,0-.376-.12,3.266,3.266,0,0,0-1.4-.019v3.4h-1.888v-8.612h1.888v3.38a3.415,3.415,0,0,0,3.4-3.38h1.892a5.179,5.179,0,0,1-1.978,4.06,4.55,4.55,0,0,1,2.071,3.8" transform="translate(-652.098 -3948.844)" fill="#fff"/>
  <path id="Path_16" data-name="Path 16" d="M710.77,4051.973v.937h-1.3a3.87,3.87,0,0,0-3.367,1.938,3.723,3.723,0,0,0,0,3.7,3.871,3.871,0,0,0,3.367,1.938h3.2v-8.509Zm-1.3,6.571a1.848,1.848,0,1,1,0-3.7h1.3v3.7Z" transform="translate(-662.941 -3948.833)" fill="#fff"/>
  <path id="Path_17" data-name="Path 17" d="M721.8,3991.4h-.008a10.517,10.517,0,1,0,0,21.03h.008a10.517,10.517,0,1,0,0-21.03m0,13.292h-.005a2.779,2.779,0,1,1,0-5.557h.005a2.779,2.779,0,1,1,0,5.557" transform="translate(-660.714 -3971.927)" fill="#f0483e"/>
  <path id="Path_18" data-name="Path 18" d="M789.087,4042.754s-5.152,13.89-5.184,13.956a4.587,4.587,0,0,1-3.834,2.85,4.3,4.3,0,0,1-.943,0,4.592,4.592,0,0,1-3.091-1.629l-9.314-10.882a12.56,12.56,0,0,0-5.55-3.65,12.771,12.771,0,0,0-3.93-.619,12.589,12.589,0,0,0-9.362,4.138l-9.425,11.014-.145.163a4.478,4.478,0,0,1-1.94,1.247.008.008,0,0,1-.008.008,4.524,4.524,0,0,1-1.008.211,4.464,4.464,0,0,1-.471.026,4.7,4.7,0,0,1-4.312-2.887l-.063-.179-15.432-41.6a22.307,22.307,0,0,1-1.31-6c-.041-.541-.065-1.074-.065-1.607a21.719,21.719,0,0,1,1.375-7.618,22.436,22.436,0,0,1,13.554-13.311,23.034,23.034,0,0,1,7.733-1.349h.008A22.677,22.677,0,0,1,757.7,3999.69a21.877,21.877,0,0,1,1.373,7.626h7.884a29.52,29.52,0,0,0-1.854-10.268,30.541,30.541,0,0,0-28.738-19.746h-.008a30.9,30.9,0,0,0-10.424,1.821,30.184,30.184,0,0,0-17.668,16.443c-.072.158-.137.314-.2.464v.008a29.656,29.656,0,0,0-1.948,7.132,28.623,28.623,0,0,0-.3,4.146,29.526,29.526,0,0,0,1.622,9.61l.07.2,10.328,27.845a30.97,30.97,0,0,1-37.269,12.58l-1.726,2.013-3.561,4.172a39.053,39.053,0,0,0,39.641-4.172,37.981,37.981,0,0,0,6.184-5.792l1.964,5.292.183.5a12.433,12.433,0,0,0,7.709,7.136,12.6,12.6,0,0,0,3.163.6h1.518c.248-.017.48-.04.719-.065.008,0,.008-.006.008-.006a12.516,12.516,0,0,0,8.163-4.374l1.534-1.787,1.725,2.02a12.585,12.585,0,0,0,8.69,4.212H758a12.537,12.537,0,0,0,8.674-4.2l1.742-2.029,1.534,1.787a12.558,12.558,0,0,0,8.89,4.445h1.518a12.582,12.582,0,0,0,3.17-.6,12.4,12.4,0,0,0,7.7-7.136.669.669,0,0,0,.073-.172l6.141-16.578v-.057Zm-28.324,15.231a4.725,4.725,0,0,1-3.522,1.6,4.489,4.489,0,0,1-.471-.026,4.592,4.592,0,0,1-3.092-1.611l-2.475-2.9,2.611-3.057a4.679,4.679,0,0,1,6.845,0l2.613,3.057Z" transform="translate(-675.281 -3977.303)" fill="#fff"/>
  <path id="Path_19" data-name="Path 19" d="M690.445,4021.62a2.3,2.3,0,0,0,2.326,2.281h4.08v4.564H684.1V4023.9h2.1a6.475,6.475,0,0,1-.408-2.281,6.928,6.928,0,0,1,6.977-6.858h4.08v4.565h-4.08a2.3,2.3,0,0,0-2.326,2.293" transform="translate(-671.694 -3963.02)" fill="#fff"/>
  <path id="Path_20" data-name="Path 20" d="M745.45,4014.76v3.624a5.206,5.206,0,0,1-8.674,3.788,5.22,5.22,0,0,1-3.476,1.323,5.167,5.167,0,0,1-5.208-5.111v-3.624h3.489v3.624a1.727,1.727,0,0,0,3.453,0v-3.624h3.488v3.624a1.721,1.721,0,0,0,3.441,0v-3.624Z" transform="translate(-653.79 -3963.019)" fill="#fff"/>
  <rect id="Rectangle_11" data-name="Rectangle 11" width="20.206" height="3.423" transform="translate(101.956 51.741)" fill="#fff"/>
  <path id="Path_21" data-name="Path 21" d="M758.663,4051.044a3.894,3.894,0,0,1-3.93,3.858h0a3.858,3.858,0,1,1,0-7.714h0a3.894,3.894,0,0,1,3.93,3.856" transform="translate(-644.55 -3950.656)" fill="#fff"/>
  <path id="Path_22" data-name="Path 22" d="M751.759,4051.044a3.894,3.894,0,0,1-3.93,3.858h0a3.858,3.858,0,1,1,0-7.714h0a3.894,3.894,0,0,1,3.93,3.856" transform="translate(-647.359 -3950.656)" fill="#fff"/>
</svg>
